<svg width="5" height="6" viewBox="0 0 5 6" fill="none" xmlns="http://www.w3.org/2000/svg">
<path d="M1.353 3.02C1.36033 3.25833 1.41717 3.47283 1.5235 3.6635C1.62983 3.85417 1.78567 4.0045 1.991 4.1145C2.2 4.22083 2.45483 4.274 2.7555 4.274C3.01583 4.274 3.2395 4.23917 3.4265 4.1695C3.61717 4.09617 3.77483 4.01 3.8995 3.911C4.02417 3.80833 4.11583 3.713 4.1745 3.625L4.697 4.3345C4.58333 4.4885 4.44033 4.626 4.268 4.747C4.09567 4.868 3.88117 4.9615 3.6245 5.0275C3.3715 5.09717 3.058 5.132 2.684 5.132C2.19267 5.132 1.7655 5.03117 1.4025 4.8295C1.0395 4.62783 0.757167 4.34367 0.5555 3.977C0.3575 3.61033 0.2585 3.18133 0.2585 2.69C0.2585 2.25 0.350167 1.854 0.5335 1.502C0.716833 1.14633 0.982667 0.865833 1.331 0.6605C1.683 0.455166 2.10467 0.3525 2.596 0.3525C3.05433 0.3525 3.45217 0.444167 3.7895 0.6275C4.12683 0.810833 4.38717 1.07483 4.5705 1.4195C4.7575 1.7605 4.851 2.173 4.851 2.657C4.851 2.68633 4.84917 2.74683 4.8455 2.8385C4.8455 2.93017 4.84183 2.99067 4.8345 3.02H1.353ZM3.751 2.162C3.74733 2.04467 3.707 1.91083 3.63 1.7605C3.55667 1.61017 3.4375 1.48 3.2725 1.37C3.1075 1.25633 2.8875 1.1995 2.6125 1.1995C2.33017 1.1995 2.101 1.2545 1.925 1.3645C1.749 1.47083 1.61883 1.59917 1.5345 1.7495C1.45017 1.89617 1.40067 2.03367 1.386 2.162H3.751Z" fill="#E64242"/>
</svg>
