<svg width="6" height="6" viewBox="0 0 6 6" fill="none" xmlns="http://www.w3.org/2000/svg">
<path d="M2.695 5.132C2.222 5.132 1.80033 5.02933 1.43 4.824C1.06333 4.615 0.7755 4.33267 0.5665 3.977C0.3575 3.61767 0.253 3.21067 0.253 2.756C0.253 2.30133 0.3575 1.8925 0.5665 1.5295C0.7755 1.1665 1.06333 0.8805 1.43 0.6715C1.80033 0.458833 2.222 0.3525 2.695 0.3525C3.168 0.3525 3.586 0.458833 3.949 0.6715C4.312 0.8805 4.59617 1.1665 4.8015 1.5295C5.0105 1.8925 5.115 2.30133 5.115 2.756C5.115 3.21067 5.0105 3.61767 4.8015 3.977C4.59617 4.33267 4.312 4.615 3.949 4.824C3.586 5.02933 3.168 5.132 2.695 5.132ZM2.695 4.142C2.959 4.142 3.18817 4.0815 3.3825 3.9605C3.57683 3.8395 3.72717 3.6745 3.8335 3.4655C3.93983 3.2565 3.993 3.01817 3.993 2.7505C3.993 2.48283 3.93983 2.2445 3.8335 2.0355C3.72717 1.82283 3.57683 1.65417 3.3825 1.5295C3.18817 1.40483 2.959 1.3425 2.695 1.3425C2.431 1.3425 2.2 1.40483 2.002 1.5295C1.80767 1.65417 1.6555 1.82283 1.5455 2.0355C1.43917 2.2445 1.386 2.48283 1.386 2.7505C1.386 3.01817 1.43917 3.2565 1.5455 3.4655C1.6555 3.6745 1.80767 3.8395 2.002 3.9605C2.2 4.0815 2.431 4.142 2.695 4.142Z" fill="#EFB718"/>
</svg>
