<svg width="6" height="8" viewBox="0 0 6 8" fill="none" xmlns="http://www.w3.org/2000/svg">
<path d="M2.7665 7.4145C2.42183 7.4145 2.101 7.37967 1.804 7.31C1.51067 7.244 1.2485 7.14317 1.0175 7.0075C0.7865 6.8755 0.5995 6.71233 0.4565 6.518L1.188 5.792C1.265 5.88733 1.364 5.98633 1.485 6.089C1.606 6.19533 1.7655 6.28333 1.9635 6.353C2.1615 6.42633 2.41267 6.463 2.717 6.463C3.014 6.463 3.267 6.4025 3.476 6.2815C3.68867 6.1605 3.85 5.99367 3.96 5.781C4.07367 5.572 4.1305 5.33 4.1305 5.055V4.9175H5.2855V5.1265C5.2855 5.62517 5.17367 6.04317 4.95 6.3805C4.72633 6.7215 4.42383 6.97817 4.0425 7.1505C3.66117 7.3265 3.23583 7.4145 2.7665 7.4145ZM4.1305 5V4.164C4.10117 4.252 4.01683 4.373 3.8775 4.527C3.74183 4.681 3.55483 4.82033 3.3165 4.945C3.08183 5.06967 2.80317 5.132 2.4805 5.132C2.05883 5.132 1.67933 5.03117 1.342 4.8295C1.00467 4.62783 0.738833 4.34733 0.5445 3.988C0.350167 3.62867 0.253 3.21433 0.253 2.745C0.253 2.27567 0.350167 1.86133 0.5445 1.502C0.738833 1.14267 1.00467 0.862167 1.342 0.6605C1.67933 0.455166 2.05883 0.3525 2.4805 0.3525C2.79583 0.3525 3.069 0.4075 3.3 0.5175C3.531 0.6275 3.71617 0.754 3.8555 0.897C3.9985 1.04 4.0865 1.16467 4.1195 1.271V0.4845H5.2855V5H4.1305ZM1.4135 2.745C1.4135 3.03467 1.47767 3.28767 1.606 3.504C1.73433 3.72033 1.90117 3.88717 2.1065 4.0045C2.3155 4.12183 2.53917 4.1805 2.7775 4.1805C3.03417 4.1805 3.2615 4.12 3.4595 3.999C3.66117 3.878 3.81883 3.71117 3.9325 3.4985C4.04983 3.28217 4.1085 3.031 4.1085 2.745C4.1085 2.459 4.04983 2.20967 3.9325 1.997C3.81883 1.78067 3.66117 1.612 3.4595 1.491C3.2615 1.36633 3.03417 1.304 2.7775 1.304C2.53917 1.304 2.3155 1.3645 2.1065 1.4855C1.90117 1.60283 1.73433 1.76967 1.606 1.986C1.47767 2.20233 1.4135 2.45533 1.4135 2.745Z" fill="#4582E3"/>
</svg>
