<svg width="8" height="9" viewBox="0 0 8 9" fill="none" xmlns="http://www.w3.org/2000/svg">
<path d="M3.8005 4.0235H7.4745V4.436C7.4745 4.94933 7.3865 5.42967 7.2105 5.877C7.0345 6.32067 6.78517 6.713 6.4625 7.054C6.1435 7.39133 5.76583 7.65533 5.3295 7.846C4.89317 8.03667 4.411 8.132 3.883 8.132C3.34767 8.132 2.85633 8.03483 2.409 7.8405C1.96533 7.6425 1.58033 7.37117 1.254 7.0265C0.931333 6.68183 0.680167 6.28217 0.5005 5.8275C0.3245 5.37283 0.2365 4.88517 0.2365 4.3645C0.2365 3.8475 0.3245 3.36167 0.5005 2.907C0.680167 2.45233 0.931333 2.05267 1.254 1.708C1.58033 1.36333 1.96533 1.09383 2.409 0.8995C2.85633 0.705166 3.34767 0.607999 3.883 0.607999C4.27533 0.607999 4.62733 0.652 4.939 0.74C5.25433 0.824333 5.53483 0.939833 5.7805 1.0865C6.02617 1.23317 6.24067 1.4 6.424 1.587C6.60733 1.77033 6.76317 1.95917 6.8915 2.1535L5.8245 2.6925C5.6265 2.41017 5.368 2.1755 5.049 1.9885C4.73 1.79783 4.34133 1.7025 3.883 1.7025C3.52733 1.7025 3.19917 1.77217 2.8985 1.9115C2.6015 2.05083 2.343 2.24333 2.123 2.489C1.90667 2.73467 1.738 3.01883 1.617 3.3415C1.49967 3.6605 1.441 4.0015 1.441 4.3645C1.441 4.7275 1.49967 5.07033 1.617 5.393C1.738 5.71567 1.90667 5.99983 2.123 6.2455C2.343 6.49117 2.6015 6.6855 2.8985 6.8285C3.19917 6.96783 3.52733 7.0375 3.883 7.0375C4.21667 7.0375 4.51917 6.98433 4.7905 6.878C5.0655 6.768 5.30383 6.61767 5.5055 6.427C5.70717 6.23633 5.86667 6.0145 5.984 5.7615C6.10133 5.50483 6.16917 5.22983 6.1875 4.9365H3.8005V4.0235Z" fill="#4D86E2"/>
</svg>
